<?xml version="1.0" standalone="no"?>
<!DOCTYPE svg PUBLIC "-//W3C//DTD SVG 20010904//EN"
 "http://www.w3.org/TR/2001/REC-SVG-20010904/DTD/svg10.dtd">
<svg version="1.0" xmlns="http://www.w3.org/2000/svg"
 width="943.000000pt" height="943.000000pt" viewBox="0 0 943.000000 943.000000"
 preserveAspectRatio="xMidYMid meet">
<metadata>
Created by potrace 1.14, written by Peter Selinger 2001-2017
</metadata>
<g transform="translate(0.000000,943.000000) scale(0.100000,-0.100000)"
fill="#000000" stroke="none">
<path d="M4196 9004 c-121 -29 -232 -118 -288 -232 -31 -63 -33 -74 -33 -172
0 -83 5 -118 23 -168 81 -226 298 -406 502 -416 124 -6 234 39 330 134 151
149 174 349 64 547 -125 226 -382 357 -598 307z m112 -270 c134 -100 265 -244
308 -339 34 -73 20 -120 -32 -111 -109 20 -374 258 -435 391 -43 94 -13 137
74 105 27 -10 65 -31 85 -46z m-349 -16 c-27 -94 -4 -240 52 -330 16 -27 27
-48 24 -48 -2 0 -23 23 -45 51 -74 93 -91 216 -45 325 18 43 26 44 14 2z"/>
<path d="M3515 8323 c-43 -10 -122 -48 -160 -77 -172 -129 -244 -324 -185
-504 57 -173 218 -341 385 -403 50 -18 150 -22 207 -9 211 49 394 279 382 478
-9 143 -122 282 -229 282 -60 0 -115 -31 -198 -110 -118 -111 -137 -175 -73
-238 38 -39 96 -36 140 7 35 34 36 34 57 15 23 -21 48 -65 59 -104 17 -59 -39
-101 -112 -84 -85 18 -243 154 -329 282 -57 86 -77 141 -63 180 13 37 41 38
105 7 62 -30 132 -35 176 -12 95 50 137 164 81 224 -38 41 -97 65 -163 68 -33
1 -69 0 -80 -2z m-275 -327 c-15 -41 -12 -155 6 -217 9 -30 29 -79 46 -109 37
-66 13 -50 -35 23 -63 97 -75 201 -32 302 17 43 31 43 15 1z"/>
<path d="M5199 8226 c-2 -2 -25 -6 -51 -9 -60 -7 -175 -48 -230 -80 -45 -27
-53 -35 -313 -282 -86 -82 -185 -176 -218 -208 -34 -32 -134 -127 -222 -212
-88 -84 -180 -172 -205 -195 -25 -23 -114 -108 -198 -189 -85 -80 -179 -170
-210 -200 -32 -29 -124 -117 -207 -196 -82 -79 -175 -167 -206 -197 -104 -99
-371 -353 -434 -413 -72 -68 -330 -314 -420 -400 -33 -31 -129 -123 -214 -203
-84 -81 -174 -167 -200 -191 -474 -448 -632 -604 -653 -645 -14 -28 -19 -52
-15 -85 6 -65 18 -90 70 -142 71 -71 202 -127 337 -145 69 -10 7300 -11 7391
-1 230 23 419 157 421 298 1 72 -32 113 -278 346 -100 94 -378 359 -424 403
-50 48 -341 325 -420 400 -26 25 -119 113 -206 197 -88 83 -179 170 -204 194
-25 23 -121 114 -214 203 -221 210 -242 231 -430 410 -88 83 -180 171 -206
196 -54 52 -352 336 -421 401 -26 24 -120 114 -209 199 -89 85 -181 173 -204
194 -22 21 -115 110 -206 196 -251 240 -258 246 -319 278 -97 52 -190 73 -342
77 -75 2 -138 3 -140 1z"/>
<path d="M2734 7659 c-78 -39 -104 -120 -65 -198 12 -23 28 -49 36 -59 7 -9
46 -57 86 -107 171 -213 391 -404 483 -421 66 -12 87 -10 122 10 58 33 79 68
77 131 -1 42 -8 64 -35 107 -86 134 -442 473 -562 535 -46 24 -98 25 -142 2z
m-9 -101 c-3 -32 23 -95 60 -148 51 -74 49 -78 -9 -17 -58 60 -83 116 -72 161
8 32 23 34 21 4z"/>
<path d="M2295 7218 c-72 -25 -125 -87 -125 -146 0 -27 26 -107 63 -192 47
-109 55 -127 61 -147 4 -13 5 -23 3 -23 -2 0 -82 32 -178 70 -95 39 -184 70
-197 70 -87 0 -185 -137 -161 -225 40 -145 377 -600 499 -674 39 -23 98 -27
151 -10 78 26 117 99 86 163 -12 26 -129 172 -259 324 -27 32 -19 35 30 12
133 -64 218 -92 284 -94 62 -1 70 1 97 29 35 34 45 85 29 141 -5 20 -36 93
-69 162 -32 68 -59 126 -59 129 0 2 35 -23 78 -55 107 -81 230 -166 272 -187
72 -37 155 -7 184 65 36 90 10 141 -129 252 -160 127 -451 307 -541 334 -54
16 -77 17 -119 2z m-61 -125 c-1 -21 11 -74 27 -118 15 -44 27 -81 25 -82 -2
-2 -14 18 -29 44 -36 67 -51 132 -38 166 14 36 16 34 15 -10z m-372 -523 c14
-30 42 -79 62 -109 37 -54 25 -52 -26 4 -63 69 -109 195 -90 244 4 10 10 -1
18 -34 6 -27 22 -75 36 -105z"/>
<path d="M1409 6299 c-113 -17 -237 -112 -294 -225 -28 -55 -30 -67 -29 -164
0 -92 4 -114 29 -175 103 -253 381 -507 534 -489 64 8 99 24 135 65 30 32 36
47 36 83 0 50 -13 67 -127 165 -35 29 -63 57 -63 61 0 4 30 38 66 75 l66 68
74 -80 c79 -87 114 -107 166 -100 89 12 154 98 139 182 -18 93 -147 271 -271
371 -30 24 -61 49 -68 55 -7 5 -41 25 -75 44 -108 58 -216 80 -318 64z m24
-235 c40 -21 68 -42 136 -106 l53 -49 -71 -74 -71 -73 -46 62 c-54 71 -104
170 -104 207 0 49 43 63 103 33z m-258 -13 c-35 -110 -13 -265 52 -366 l26
-40 -30 28 c-67 63 -111 195 -91 277 11 47 38 120 45 120 2 0 2 -9 -2 -19z"/>
<path d="M823 5634 c-18 -9 -49 -37 -70 -63 -21 -25 -46 -55 -56 -66 -10 -11
-33 -37 -50 -57 -17 -21 -35 -38 -39 -38 -5 0 -58 40 -118 89 -114 91 -161
114 -221 104 -121 -19 -231 -132 -231 -238 0 -70 23 -103 174 -262 l69 -73
-78 -80 c-85 -88 -91 -98 -92 -151 -2 -108 110 -204 214 -185 29 6 58 28 128
95 l90 88 100 -78 c135 -105 200 -139 268 -139 163 0 280 174 212 317 -9 21
-70 90 -133 154 l-116 117 19 23 c10 13 33 42 50 64 18 21 43 53 57 70 50 59
64 89 64 140 1 125 -137 222 -241 169z m-676 -237 c4 -56 50 -147 114 -227 56
-69 32 -54 -56 36 -84 87 -111 157 -83 219 14 32 21 25 25 -28z m67 -574 c-1
-32 4 -72 12 -90 12 -31 12 -32 -7 -20 -28 16 -50 73 -43 106 5 20 31 61 38
61 1 0 1 -26 0 -57z"/>
<path d="M1581 4125 c-227 -41 -381 -160 -381 -292 0 -68 34 -113 202 -274
225 -215 236 -225 397 -378 79 -75 164 -156 190 -181 26 -25 121 -115 210
-200 90 -85 191 -182 226 -215 100 -96 374 -357 419 -399 22 -21 122 -116 220
-210 98 -94 196 -187 216 -206 20 -19 113 -107 206 -196 93 -89 187 -178 209
-198 22 -21 117 -111 210 -201 94 -89 186 -178 206 -196 20 -19 112 -106 204
-194 615 -588 590 -567 718 -610 86 -29 156 -39 272 -39 147 0 233 15 340 62
84 36 91 42 341 281 92 89 216 207 499 476 23 22 118 112 210 200 93 88 187
178 210 200 23 22 116 110 206 196 90 86 182 173 204 194 41 38 356 338 430
410 23 22 113 108 200 190 86 83 179 170 204 195 26 25 123 117 216 205 92 88
187 178 210 200 96 92 394 376 421 401 168 155 390 377 405 406 54 106 -2 219
-153 306 -33 18 -105 44 -197 69 -14 4 -1684 8 -3711 9 -3042 2 -3698 0 -3759
-11z"/>
<path d="M8668 2841 c-58 -36 -415 -395 -458 -460 -58 -87 -11 -171 91 -162 9
0 42 24 73 51 31 28 59 50 61 50 2 0 75 -71 162 -157 166 -166 200 -197 273
-253 25 -19 47 -37 50 -40 3 -3 30 -22 61 -43 108 -70 215 -53 266 43 20 36
23 54 18 89 -8 51 -20 74 -88 156 -58 70 -331 340 -411 405 -58 48 -69 76 -40
105 79 79 98 124 73 178 -22 47 -85 66 -131 38z m-408 -475 c-4 -21 -3 -47 5
-70 13 -37 13 -37 -8 -23 -28 18 -33 68 -11 101 21 34 23 33 14 -8z"/>
<path d="M7961 2162 c-36 -25 -101 -84 -245 -221 -59 -56 -86 -101 -86 -143 0
-73 120 -238 310 -428 280 -281 415 -346 515 -245 6 5 53 62 105 125 52 63 97
117 100 120 31 27 70 99 70 128 0 65 -55 122 -118 122 -26 0 -81 -33 -102 -61
-3 -4 -23 -28 -45 -55 -22 -26 -44 -53 -50 -61 -8 -10 -20 -2 -57 35 l-47 48
30 34 c85 97 109 133 109 163 0 42 -31 92 -69 111 -51 27 -84 12 -161 -72
l-70 -75 -87 86 -87 86 82 81 c71 70 82 85 82 115 0 49 -14 80 -49 104 -46 33
-84 34 -130 3z m-205 -434 c9 -18 35 -60 57 -93 l40 -60 -52 50 c-56 54 -101
133 -101 176 0 16 6 40 13 56 12 26 12 25 19 -34 4 -34 14 -76 24 -95z"/>
<path d="M7325 1506 c-129 -40 -284 -162 -352 -275 -35 -57 -34 -121 2 -193
95 -188 338 -427 560 -549 150 -82 288 -66 354 41 24 40 27 89 7 128 -13 26
-74 86 -158 159 l-38 32 39 75 c69 135 72 252 11 379 -30 63 -123 157 -186
187 -57 29 -174 36 -239 16z m-276 -273 c-22 -57 12 -204 58 -255 28 -31 5
-19 -27 13 -70 74 -91 170 -50 237 24 39 33 42 19 5z m329 1 c87 -36 175 -166
153 -226 -7 -19 -11 -17 -67 29 -32 28 -90 83 -128 123 -51 55 -65 75 -55 81
21 13 56 11 97 -7z"/>
</g>
</svg>
